<svg width="22" height="22" viewBox="0 0 22 22" fill="none" xmlns="http://www.w3.org/2000/svg">
<g clip-path="url(#clip0_420_84)">
<path d="M0 4.64106C0.0487919 4.40456 0.0861034 4.1652 0.147524 3.93272C0.539581 2.45403 1.77832 1.42711 3.33565 1.3852C4.99572 1.341 6.65809 1.35019 8.31874 1.37717C9.37609 1.39439 9.99546 2.256 9.7515 3.28178C9.59135 3.95338 8.99608 4.37701 8.17408 4.38103C6.73501 4.38792 5.29536 4.38218 3.85629 4.38447C3.71393 4.38447 3.57042 4.39595 3.42921 4.41375C3.19903 4.44245 3.07274 4.58251 3.04864 4.8104C3.03314 4.95964 3.01879 5.11004 3.01879 5.25986C3.01706 9.54207 3.01706 13.8237 3.01764 18.1059C3.01764 18.8676 3.12613 18.9779 3.88384 18.9779C8.17294 18.9784 12.462 18.9784 16.7511 18.9779C17.5077 18.9779 17.6145 18.8682 17.615 18.1048C17.615 16.7156 17.6122 15.3265 17.6179 13.9374C17.6191 13.7244 17.6334 13.5051 17.6856 13.3002C17.8797 12.5344 18.4962 12.1309 19.3239 12.2061C20.0403 12.271 20.5615 12.8324 20.6223 13.6044C20.6258 13.6475 20.6275 13.6905 20.6275 13.733C20.6275 15.3443 20.6493 16.9556 20.6178 18.5663C20.5965 19.6495 20.162 20.5645 19.2941 21.2452C18.774 21.6534 18.1753 21.8715 17.5249 21.9588C17.4549 21.9679 17.386 21.9869 17.3165 22.0007H3.26562C3.20477 21.9863 3.1445 21.9651 3.0825 21.9582C1.63022 21.7871 0.520065 20.8308 0.148098 19.421C0.0849554 19.1816 0.0487919 18.9354 0 18.692C0 14.0085 0 9.32509 0 4.64164L0 4.64106Z" fill="white"/>
<path d="M18.906 5.2248C18.6764 5.45843 18.4479 5.6932 18.216 5.92568C15.8137 8.33371 13.4155 10.7458 11.0023 13.1423C10.7503 13.3926 10.4271 13.5963 10.1022 13.7433C9.16082 14.1675 8.32562 13.4666 8.16374 12.6693C8.04492 12.0827 8.24181 11.5982 8.65166 11.1877C9.6585 10.1792 10.6682 9.1735 11.6779 8.16781C13.3317 6.52037 14.9872 4.87407 16.6415 3.2272C16.6857 3.183 16.7259 3.13593 16.7925 3.0636C16.7012 3.05844 16.6409 3.05327 16.5806 3.0527C15.6926 3.04523 14.8052 3.04122 13.9172 3.03031C13.7318 3.02801 13.5423 3.02285 13.3627 2.98324C12.5619 2.80701 12.1205 2.15894 12.2066 1.3048C12.2824 0.549383 12.8868 0.0143934 13.7174 0.00750517C15.2282 -0.00512334 16.7391 0.00176494 18.2499 0.000616894C18.9657 0.000616894 19.6821 -0.00225322 20.3979 0.00520908C20.5753 0.00693115 20.7572 0.0235778 20.9289 0.0672035C21.6039 0.238262 21.992 0.773252 21.996 1.54129C22.0023 2.72263 22 3.90455 22 5.08589C22 6.15299 22.0034 7.2201 21.996 8.28664C21.9902 9.07477 21.5396 9.6287 20.8043 9.7768C19.8365 9.97139 19.0093 9.32103 18.9904 8.33715C18.9726 7.38485 18.9703 6.43254 18.9611 5.48024C18.9605 5.40275 18.9611 5.32525 18.9611 5.24776C18.9433 5.2403 18.925 5.23226 18.9072 5.2248H18.906Z" fill="white"/>
</g>
<defs>
<clipPath id="clip0_420_84">
<rect width="22" height="22" fill="white"/>
</clipPath>
</defs>
</svg>
