<svg width="267" height="39" viewBox="0 0 267 39" fill="none" xmlns="http://www.w3.org/2000/svg">
<path d="M21.2721 30.7629C21.2721 31.2251 21.1181 31.3792 20.625 31.4716C18.8687 31.8414 16.4961 32.2111 13.5072 32.2111C9.80965 32.2111 4.20166 30.4548 4.20166 22.1045V18.8691C4.20166 10.4263 9.65558 8.73157 13.9386 8.73157C17.1432 8.73157 19.4233 9.22458 20.6867 9.56352C21.1181 9.68677 21.2721 9.7484 21.2721 10.149V14.0314C21.2721 14.4628 21.1181 14.5552 20.7483 14.5244C19.5774 14.432 17.0815 14.2471 14.8014 14.2471C11.8741 14.2471 10.5492 15.1407 10.5492 18.8691V22.1353C10.5492 26.2642 12.3055 26.8497 13.5072 26.8497C14.0927 26.8497 14.6781 26.8189 15.2019 26.7572V20.4405C15.2019 20.1016 15.4484 19.8243 15.7874 19.8243H20.6559C20.9948 19.8243 21.2721 20.1016 21.2721 20.4405V30.7629Z" fill="white"/>
<path d="M39.4588 31.2251C39.4588 31.5949 39.2431 31.7798 38.8426 31.8414C37.6717 31.9955 35.7613 32.2111 32.7724 32.2111C28.8283 32.2111 24.8842 31.2868 24.8842 25.309V15.6337C24.8842 9.68677 28.8283 8.73157 32.7724 8.73157C35.7613 8.73157 37.6717 8.94726 38.8426 9.10132C39.2431 9.16295 39.4588 9.34783 39.4588 9.71759V13.4768C39.4588 13.8157 39.1815 14.093 38.8426 14.093H32.6183C31.509 14.093 31.1393 14.432 31.1393 15.6337V17.8831H38.7193C39.0583 17.8831 39.3356 18.1604 39.3356 18.4993V22.1353C39.3356 22.4742 39.0583 22.7515 38.7193 22.7515H31.1393V25.309C31.1393 26.5107 31.509 26.8497 32.6183 26.8497H38.8426C39.1815 26.8497 39.4588 27.127 39.4588 27.4659V31.2251Z" fill="white"/>
<path d="M61.4582 22.0736C61.4582 29.592 57.1135 32.2111 51.9986 32.2111C46.8836 32.2111 42.5389 29.592 42.5389 22.0736V18.8999C42.5389 11.3815 46.8836 8.73157 51.9986 8.73157C57.1135 8.73157 61.4582 11.3815 61.4582 18.8999V22.0736ZM55.1107 22.0736V18.8999C55.1107 15.6029 54.1555 14.2471 51.9986 14.2471C49.8416 14.2471 48.8864 15.6029 48.8864 18.8999V22.0736C48.8864 25.3706 49.8416 26.6956 51.9986 26.6956C54.1555 26.6956 55.1107 25.3706 55.1107 22.0736Z" fill="white"/>
<path d="M81.3637 30.7629C81.3637 31.2251 81.2096 31.3792 80.7166 31.4716C78.9603 31.8414 76.5877 32.2111 73.5988 32.2111C69.9012 32.2111 64.2932 30.4548 64.2932 22.1045V18.8691C64.2932 10.4263 69.7471 8.73157 74.0302 8.73157C77.2347 8.73157 79.5149 9.22458 80.7782 9.56352C81.2096 9.68677 81.3637 9.7484 81.3637 10.149V14.0314C81.3637 14.4628 81.2096 14.5552 80.8399 14.5244C79.669 14.432 77.1731 14.2471 74.8929 14.2471C71.9657 14.2471 70.6407 15.1407 70.6407 18.8691V22.1353C70.6407 26.2642 72.3971 26.8497 73.5988 26.8497C74.1842 26.8497 74.7697 26.8189 75.2935 26.7572V20.4405C75.2935 20.1016 75.54 19.8243 75.8789 19.8243H80.7474C81.0864 19.8243 81.3637 20.1016 81.3637 20.4405V30.7629Z" fill="white"/>
<path d="M103.741 23.2445C103.741 30.7013 99.2423 32.2111 94.4046 32.2111C89.5669 32.2111 85.0991 30.7013 85.0991 23.2445V9.65596C85.0991 9.31702 85.4072 9.0397 85.7461 9.0397H90.7378C91.0768 9.0397 91.3541 9.31702 91.3541 9.65596V23.2445C91.3541 26.0485 92.2169 26.9421 94.4046 26.9421C96.5923 26.9421 97.4859 26.0485 97.4859 23.2445V9.65596C97.4859 9.31702 97.7632 9.0397 98.1022 9.0397H103.094C103.433 9.0397 103.741 9.31702 103.741 9.65596V23.2445Z" fill="white"/>
<path d="M122.088 31.2251C122.088 31.5949 121.873 31.7798 121.472 31.8414C120.301 31.9955 118.391 32.2111 115.402 32.2111C111.458 32.2111 107.514 31.2868 107.514 25.309V15.6337C107.514 9.68677 111.458 8.73157 115.402 8.73157C118.391 8.73157 120.301 8.94726 121.472 9.10132C121.873 9.16295 122.088 9.34783 122.088 9.71759V13.4768C122.088 13.8157 121.811 14.093 121.472 14.093H115.248C114.139 14.093 113.769 14.432 113.769 15.6337V17.8831H121.349C121.688 17.8831 121.965 18.1604 121.965 18.4993V22.1353C121.965 22.4742 121.688 22.7515 121.349 22.7515H113.769V25.309C113.769 26.5107 114.139 26.8497 115.248 26.8497H121.472C121.811 26.8497 122.088 27.127 122.088 27.4659V31.2251Z" fill="white"/>
<path d="M141.222 25.155C141.222 28.606 138.85 32.2111 132.502 32.2111C129.975 32.2111 127.911 31.8722 126.278 31.41C125.97 31.3176 125.631 31.1327 125.631 30.7937V27.0037C125.631 26.5724 125.816 26.3567 126.278 26.3875C127.603 26.5107 130.9 26.8497 132.533 26.8497C134.043 26.8497 134.474 26.2642 134.474 25.2782C134.474 24.6619 134.166 24.323 133.026 23.6451L128.589 21.026C125.692 19.3313 124.922 17.236 124.922 14.8634C124.922 11.5047 126.771 8.73157 132.995 8.73157C135.429 8.73157 138.726 9.13214 139.99 9.50189C140.267 9.59433 140.544 9.7484 140.544 10.0873V13.939C140.544 14.2779 140.421 14.5552 139.928 14.5244C138.665 14.432 135.152 14.1239 132.933 14.1239C131.793 14.1239 131.393 14.5244 131.393 15.1715C131.393 15.7261 131.67 16.0343 132.995 16.743L137.155 18.9615C140.144 20.5638 141.222 22.5975 141.222 25.155Z" fill="white"/>
<path d="M159.939 25.155C159.939 28.606 157.566 32.2111 151.219 32.2111C148.692 32.2111 146.628 31.8722 144.994 31.41C144.686 31.3176 144.347 31.1327 144.347 30.7937V27.0037C144.347 26.5724 144.532 26.3567 144.994 26.3875C146.319 26.5107 149.616 26.8497 151.249 26.8497C152.759 26.8497 153.191 26.2642 153.191 25.2782C153.191 24.6619 152.883 24.323 151.742 23.6451L147.305 21.026C144.409 19.3313 143.639 17.236 143.639 14.8634C143.639 11.5047 145.487 8.73157 151.712 8.73157C154.146 8.73157 157.443 9.13214 158.706 9.50189C158.984 9.59433 159.261 9.7484 159.261 10.0873V13.939C159.261 14.2779 159.138 14.5552 158.645 14.5244C157.381 14.432 153.869 14.1239 151.65 14.1239C150.51 14.1239 150.109 14.5244 150.109 15.1715C150.109 15.7261 150.387 16.0343 151.712 16.743L155.871 18.9615C158.86 20.5638 159.939 22.5975 159.939 25.155Z" fill="white"/>
<path d="M181.891 31.4716C181.891 31.749 181.675 31.9338 181.367 31.9338H175.697C175.358 31.9338 175.235 31.6257 175.081 31.3176L171.168 23.7992C170.706 23.7992 170.367 23.7992 169.411 23.7684V31.3176C169.411 31.6565 169.134 31.9338 168.795 31.9338H163.803C163.464 31.9338 163.156 31.6565 163.156 31.3176V11.1658C163.156 9.68677 163.649 9.34783 164.943 9.13214C166.176 8.94726 169.257 8.73157 171.445 8.73157C177.176 8.73157 181.09 10.5495 181.09 16.1883V16.6813C181.09 19.9783 179.272 21.9196 177.33 22.7515L181.798 31.1327C181.86 31.2559 181.891 31.3792 181.891 31.4716ZM174.865 16.7122V16.1883C174.865 14.7401 173.848 14.0006 171.784 14.0006C171.568 14.0006 170.305 14.0006 169.411 14.0622V18.9615C169.565 18.9923 171.476 18.9923 171.661 18.9923C174.033 18.9923 174.865 18.1604 174.865 16.7122Z" fill="white"/>
<path fill-rule="evenodd" clip-rule="evenodd" d="M21.8084 5.51395L21.8543 5.52705C21.9563 5.55611 22.2174 5.63053 22.4904 5.73729C22.7829 5.85163 23.3451 6.09726 23.9082 6.58997C24.0533 6.71694 24.1851 6.84757 24.3047 6.98053C24.5337 6.79521 24.7737 6.61897 25.025 6.45212C27.5931 4.74675 30.6407 4.52966 32.7725 4.52966C35.9859 4.52966 38.0843 4.76341 39.3908 4.93533L39.4363 4.94131L39.4816 4.94828C40.1145 5.04564 41.2368 5.32459 42.2156 6.26716C42.5845 6.62244 42.8685 7.00808 43.083 7.40371C45.7347 5.25232 48.9974 4.52966 51.9987 4.52966C55.2272 4.52966 58.7582 5.36588 61.5057 7.91717C62.0099 8.38532 62.4669 8.8918 62.8775 9.43423C63.4839 8.6399 64.1843 7.93414 64.9737 7.31928C67.9241 5.02125 71.4489 4.52966 74.0303 4.52966C77.6807 4.52966 80.3332 5.09358 81.8672 5.50514L81.9 5.51395L81.9458 5.52704C82.0478 5.5561 82.309 5.63052 82.582 5.73729C82.6461 5.76235 82.7231 5.7937 82.8103 5.83258C83.6652 5.1931 84.7119 4.83779 85.7463 4.83779H90.738C92.2142 4.83779 93.5361 5.50286 94.4201 6.54952C95.3042 5.50287 96.626 4.83779 98.1023 4.83779H103.094C104.601 4.83779 106.134 5.5916 107.062 6.8794C107.252 6.73083 107.45 6.58835 107.655 6.45212C110.223 4.74675 113.27 4.52966 115.402 4.52966C118.616 4.52966 120.714 4.76341 122.02 4.93533L122.066 4.94131L122.111 4.94828C122.744 5.04564 123.866 5.32458 124.845 6.26715C124.916 6.33553 124.984 6.40503 125.049 6.47552C127.218 5.0864 129.956 4.52966 132.995 4.52966C135.648 4.52966 139.381 4.94566 141.17 5.46916L141.245 5.49101L141.319 5.51561C141.641 5.62308 142.422 5.90312 143.163 6.56163C143.23 6.62156 143.296 6.68396 143.361 6.74877C145.59 5.15895 148.481 4.52966 151.712 4.52966C154.364 4.52966 158.098 4.94566 159.887 5.46916L159.961 5.49101L160.035 5.51561C160.272 5.59454 160.756 5.76658 161.29 6.1133C162.45 5.28766 163.698 5.07985 164.24 4.98953L164.287 4.98179L164.32 4.97672C165.812 4.75296 169.11 4.52966 171.445 4.52966C174.606 4.52966 178.048 5.00226 180.789 6.87733C183.844 8.96722 185.291 12.2649 185.291 16.1882V16.6812C185.291 19.7243 184.249 22.144 182.709 23.9081L185.532 29.2044L185.557 29.2535C185.831 29.8029 186.093 30.5712 186.093 31.4715C186.093 32.7737 185.551 34.0589 184.511 34.9688C183.52 35.8365 182.347 36.1355 181.367 36.1355H175.697C174.939 36.1355 174.17 35.9535 173.464 35.5673C172.951 35.287 172.563 34.9496 172.279 34.6444C171.402 35.563 170.165 36.1355 168.795 36.1355H163.804C162.243 36.1355 160.655 35.3272 159.739 33.9546C157.498 35.5879 154.593 36.4128 151.219 36.4128C148.312 36.4128 145.862 36.0223 143.85 35.4529L143.819 35.4439L143.787 35.4345C143.374 35.3106 142.628 35.0424 141.906 34.4553C141.687 34.2775 141.457 34.0569 141.238 33.7939C138.969 35.5338 135.985 36.4128 132.502 36.4128C129.596 36.4128 127.146 36.0223 125.134 35.4529L125.102 35.4439L125.071 35.4345C124.872 35.375 124.598 35.2824 124.286 35.1372C123.464 35.7158 122.626 35.915 122.111 35.9942L122.066 36.0012L122.02 36.0072C120.714 36.1791 118.616 36.4128 115.402 36.4128C113.286 36.4128 110.233 36.2074 107.661 34.5061C106.677 33.8555 105.866 33.0611 105.221 32.1421C104.7 32.7816 104.102 33.3604 103.424 33.8738C100.584 36.0243 97.1066 36.4128 94.4047 36.4128C91.7034 36.4128 88.2289 36.0246 85.3941 33.8683C85.2029 33.7229 85.0182 33.5723 84.8397 33.4166C84.6928 33.6516 84.5163 33.8865 84.3042 34.1149C83.2608 35.2386 81.9676 35.511 81.537 35.5927C79.5741 36.0037 76.9197 36.4128 73.5989 36.4128C71.1927 36.4128 67.8096 35.857 64.9438 33.5774C64.1827 32.972 63.499 32.2779 62.9016 31.496C62.4829 32.0517 62.0154 32.5698 61.4983 33.0476C58.7471 35.59 55.216 36.4128 51.9987 36.4128C49.0027 36.4128 45.7348 35.6994 43.0778 33.5483C42.8639 33.9406 42.5815 34.3229 42.2156 34.6753C41.2367 35.6179 40.1144 35.8968 39.4816 35.9942L39.4363 36.0012L39.3908 36.0072C38.0843 36.1791 35.9859 36.4128 32.7725 36.4128C30.6559 36.4128 27.6034 36.2074 25.0313 34.5061C24.7849 34.3431 24.5493 34.1711 24.3243 33.9903C24.2882 34.0321 24.251 34.0736 24.2126 34.1149C23.1691 35.2387 21.8758 35.5111 21.4453 35.5927C19.4824 36.0037 16.8281 36.4128 13.5073 36.4128C11.1012 36.4128 7.71804 35.857 4.85226 33.5774C1.80639 31.1545 0 27.3116 0 22.1043V18.869C0 13.6714 1.73313 9.77207 4.88215 7.31928C7.83249 5.02125 11.3574 4.52966 13.9387 4.52966C17.5892 4.52966 20.2416 5.09358 21.7756 5.50514L21.8084 5.51395ZM20.6252 31.4715C21.1182 31.3791 21.2722 31.225 21.2722 30.7628V20.4404C21.2722 20.1104 21.0093 19.8388 20.6826 19.8247C20.6738 19.8244 20.6649 19.8242 20.656 19.8242H15.7875C15.4486 19.8242 15.2021 20.1015 15.2021 20.4404V26.7571C14.6782 26.8187 14.0928 26.8496 13.5073 26.8496C13.2687 26.8496 13.0082 26.8265 12.7439 26.7571C12.0967 26.5873 11.427 26.1402 11.0003 25.0757C10.7237 24.3857 10.5493 23.4364 10.5493 22.1351V18.869C10.5493 15.1406 11.8742 14.247 14.8015 14.247C17.0635 14.247 19.5378 14.4289 20.7202 14.5221C20.7297 14.5228 20.7391 14.5236 20.7484 14.5243C21.1182 14.5551 21.2722 14.4627 21.2722 14.0313V10.1489C21.2722 9.74828 21.1182 9.68665 20.6868 9.5634C19.4235 9.22446 17.1433 8.73145 13.9387 8.73145C9.65571 8.73145 4.20179 10.4262 4.20179 18.869V22.1043C4.20179 30.4547 9.80977 32.211 13.5073 32.211C16.4962 32.211 18.8688 31.8413 20.6252 31.4715ZM24.8844 25.3089C24.8844 26.6983 25.0974 27.8147 25.474 28.7099C26.7178 31.6664 29.7451 32.211 32.7725 32.211C35.7614 32.211 37.6718 31.9953 38.8427 31.8413C39.2433 31.7797 39.459 31.5948 39.459 31.225V27.4658C39.459 27.2398 39.3356 27.0412 39.153 26.9339C39.0792 26.8906 38.9958 26.8622 38.9069 26.8529C38.8858 26.8507 38.8644 26.8496 38.8427 26.8496H32.6184C31.5092 26.8496 31.1394 26.5106 31.1394 25.3089V22.7514H38.7194C38.7616 22.7514 38.8028 22.7471 38.8427 22.7389C38.919 22.7233 38.9902 22.6935 39.0536 22.6523C39.223 22.5422 39.3357 22.3512 39.3357 22.1351V18.4992C39.3357 18.4198 39.3205 18.3438 39.2928 18.2739C39.2171 18.0827 39.0481 17.9375 38.8427 17.8954C38.8028 17.8872 38.7616 17.8829 38.7194 17.8829H31.1394V15.6336C31.1394 14.4319 31.5092 14.0929 32.6184 14.0929H38.8427C38.8669 14.0929 38.8909 14.0915 38.9144 14.0887C39.1326 14.0632 39.3168 13.9225 39.4044 13.7295C39.4394 13.6523 39.459 13.5666 39.459 13.4767V9.71747C39.459 9.34771 39.2433 9.16283 38.8427 9.10121C37.6718 8.94714 35.7614 8.73145 32.7725 8.73145C29.7451 8.73145 26.7178 9.29423 25.474 12.2452C25.2556 12.7636 25.0921 13.3557 24.9934 14.0313C24.9219 14.5204 24.8844 15.0532 24.8844 15.6336V25.3089ZM42.8005 15.9383C42.7766 16.0629 42.7543 16.1893 42.7336 16.3177C42.6246 16.992 42.5597 17.7183 42.5432 18.4992C42.5405 18.6312 42.5391 18.7647 42.5391 18.8998V22.0735C42.5391 22.0941 42.5391 22.1146 42.5392 22.1351C42.542 23.0309 42.6068 23.8568 42.7275 24.6166C42.7357 24.6681 42.7441 24.7194 42.7529 24.7704C42.9263 25.786 43.2013 26.6813 43.5626 27.4658C43.5946 27.5354 43.6274 27.6041 43.6607 27.6719C45.2749 30.9515 48.4516 32.211 51.9987 32.211C55.8178 32.211 59.2074 30.7509 60.6798 26.8815C61.1767 25.5757 61.4553 23.9955 61.4583 22.1043C61.4583 22.0941 61.4583 22.0838 61.4583 22.0735V18.8998C61.4583 18.8895 61.4583 18.8792 61.4583 18.869C61.4553 16.9655 61.1731 15.3751 60.6701 14.0614C59.1926 10.2023 55.8094 8.73145 51.9987 8.73145C48.4516 8.73145 45.2749 10.0058 43.6607 13.2945C43.6313 13.3545 43.6023 13.4153 43.5739 13.4767C43.2387 14.2007 42.9769 15.0188 42.8005 15.9383ZM65.087 26.8661C66.7643 31.1677 70.749 32.211 73.5989 32.211C76.5878 32.211 78.9604 31.8413 80.7167 31.4715C81.2097 31.3791 81.3638 31.225 81.3638 30.7628V20.4404C81.3638 20.1531 81.1645 19.9101 80.8974 19.8427C80.8494 19.8306 80.7992 19.8242 80.7476 19.8242H75.8791C75.5401 19.8242 75.2936 20.1015 75.2936 20.4404V26.7571C74.7698 26.8187 74.1844 26.8496 73.5989 26.8496C73.3603 26.8496 73.0997 26.8265 72.8354 26.7571C72.1883 26.5873 71.5185 26.1402 71.0918 25.0757C70.8153 24.3857 70.6408 23.4364 70.6408 22.1351V18.869C70.6408 15.1406 71.9658 14.247 74.8931 14.247C77.1732 14.247 79.6691 14.4319 80.84 14.5243C80.8597 14.526 80.8789 14.5273 80.8974 14.5282C81.2258 14.5443 81.3638 14.4396 81.3638 14.0313V10.1489C81.3638 9.85441 81.2806 9.7431 81.0651 9.65584C81.0163 9.63606 80.9607 9.61752 80.8977 9.59836C80.8605 9.58705 80.8208 9.57553 80.7784 9.5634C79.515 9.22446 77.2349 8.73145 74.0303 8.73145C70.7305 8.73145 66.7357 9.73739 65.0755 14.0602C64.5808 15.3483 64.2933 16.9308 64.2933 18.869V22.1043C64.2933 24.0187 64.5881 25.5865 65.087 26.8661ZM85.0992 23.2444C85.0992 24.6782 85.2644 25.8921 85.5656 26.9177C86.831 31.226 90.4973 32.211 94.4047 32.211C98.4094 32.211 102.182 31.1764 103.362 26.5899C103.465 26.1904 103.548 25.7639 103.61 25.3089C103.696 24.6773 103.741 23.9907 103.741 23.2444V9.65584C103.741 9.3169 103.433 9.03958 103.094 9.03958H98.1023C97.7634 9.03958 97.486 9.3169 97.486 9.65584V23.2444C97.486 26.0484 96.5925 26.942 94.4047 26.942C92.217 26.942 91.3542 26.0484 91.3542 23.2444V9.65584C91.3542 9.3169 91.0769 9.03958 90.738 9.03958H85.7463C85.6459 9.03958 85.5482 9.0639 85.4604 9.10695C85.2518 9.20924 85.0992 9.41728 85.0992 9.65584V23.2444ZM107.611 26.835C108.24 31.4491 111.821 32.211 115.402 32.211C118.391 32.211 120.301 31.9953 121.472 31.8413C121.496 31.8376 121.52 31.8334 121.543 31.8288C121.898 31.7567 122.089 31.5725 122.089 31.225V27.4658C122.089 27.2823 122.007 27.1168 121.879 27.0036C121.849 26.9774 121.817 26.9541 121.783 26.9339C121.691 26.8803 121.585 26.8496 121.472 26.8496H115.248C114.139 26.8496 113.769 26.5106 113.769 25.3089V22.7514H121.349C121.391 22.7514 121.432 22.7471 121.472 22.7389C121.549 22.7233 121.62 22.6935 121.683 22.6523C121.853 22.5422 121.965 22.3512 121.965 22.1351V18.4992C121.965 18.4198 121.95 18.3438 121.922 18.2739C121.847 18.0827 121.678 17.9375 121.472 17.8954C121.432 17.8872 121.391 17.8829 121.349 17.8829H113.769V15.6336C113.769 14.4319 114.139 14.0929 115.248 14.0929H121.472C121.721 14.0929 121.937 13.9433 122.034 13.7295C122.069 13.6523 122.089 13.5666 122.089 13.4767V9.71747C122.089 9.65387 122.082 9.59574 122.07 9.54276C122.009 9.28776 121.804 9.15223 121.472 9.10121C120.301 8.94714 118.391 8.73145 115.402 8.73145C112.235 8.73145 109.068 9.34744 107.943 12.6698C107.667 13.4846 107.514 14.4623 107.514 15.6336V25.3089C107.514 25.8594 107.547 26.367 107.611 26.835ZM124.93 15.2772C124.949 15.7453 125.002 16.2019 125.1 16.6462C125.242 17.2909 125.479 17.9096 125.843 18.4992C125.941 18.6588 126.049 18.8163 126.167 18.9716C126.726 19.7077 127.51 20.3946 128.589 21.0259L133.026 23.645C134.166 24.3229 134.474 24.6618 134.474 25.2781C134.474 26.2641 134.043 26.8496 132.533 26.8496C132.152 26.8496 131.68 26.8311 131.163 26.8012C131.159 26.8009 131.154 26.8007 131.15 26.8004C130.996 26.7915 130.839 26.7815 130.679 26.7708C130.446 26.7552 130.208 26.7379 129.969 26.7194C128.862 26.6342 127.715 26.5244 126.89 26.4454L126.278 26.3874C126.24 26.3848 126.203 26.3839 126.168 26.3848C125.786 26.3939 125.631 26.6081 125.631 27.0036V30.7936C125.631 30.9811 125.735 31.1214 125.879 31.225C125.996 31.3088 126.14 31.3686 126.278 31.4099C126.281 31.4107 126.284 31.4116 126.287 31.4124C127.919 31.8733 129.98 32.211 132.502 32.211C136.479 32.211 138.895 30.7962 140.146 28.8907C140.534 28.2997 140.809 27.6615 140.984 27.0036C141.146 26.3968 141.222 25.7734 141.222 25.1548C141.222 24.7536 141.196 24.3652 141.139 23.9893C140.837 21.9698 139.675 20.3123 137.155 18.9614L132.995 16.7429C132.974 16.7317 132.954 16.7207 132.934 16.7098C131.662 16.0244 131.393 15.7173 131.393 15.1714C131.393 14.5243 131.794 14.1237 132.934 14.1237C133.373 14.1237 133.862 14.1358 134.375 14.1559C134.376 14.1559 134.378 14.156 134.379 14.156C134.724 14.1695 135.079 14.1867 135.436 14.2062C136.103 14.2426 136.777 14.2872 137.404 14.3322C138.06 14.3792 138.665 14.4266 139.158 14.4651C139.257 14.4729 139.353 14.4803 139.443 14.4873C139.628 14.5017 139.791 14.5143 139.928 14.5243C140.421 14.5551 140.544 14.2778 140.544 13.9389V10.0872C140.544 10.055 140.542 10.0245 140.537 9.99559C140.492 9.71959 140.241 9.58544 139.99 9.50178C138.726 9.13202 135.429 8.73145 132.995 8.73145C129.586 8.73145 127.489 9.56345 126.29 10.8679C125.611 11.6075 125.219 12.4989 125.041 13.4767C124.959 13.923 124.922 14.3872 124.922 14.8633C124.922 15.0022 124.925 15.1402 124.93 15.2772ZM145.355 26.4214C145.223 26.4088 145.102 26.3974 144.995 26.3874C144.532 26.3565 144.347 26.5722 144.347 27.0036V30.7936C144.347 31.1326 144.686 31.3175 144.995 31.4099C146.628 31.8721 148.692 32.211 151.219 32.211C155.296 32.211 157.733 30.7239 158.955 28.7455C159.635 27.6437 159.939 26.3894 159.939 25.1548C159.939 23.8298 159.649 22.6453 158.955 21.5886C158.309 20.6058 157.312 19.7335 155.872 18.9614L151.712 16.7429C151.691 16.7317 151.67 16.7207 151.65 16.7098C150.378 16.0244 150.11 15.7173 150.11 15.1714C150.11 14.5243 150.51 14.1237 151.65 14.1237C152.089 14.1237 152.579 14.1358 153.092 14.1559C153.093 14.1559 153.094 14.156 153.095 14.156C153.44 14.1695 153.795 14.1867 154.153 14.2062C154.819 14.2426 155.493 14.2872 156.121 14.3322C156.777 14.3792 157.382 14.4266 157.874 14.4651L157.875 14.4651L157.877 14.4653C158.181 14.4891 158.442 14.5095 158.645 14.5243C158.771 14.5322 158.873 14.5199 158.955 14.4916C159.193 14.4092 159.261 14.1911 159.261 13.9389V10.0872C159.261 9.91202 159.187 9.78621 159.077 9.69278C158.974 9.60547 158.84 9.54643 158.706 9.50178C157.443 9.13202 154.146 8.73145 151.712 8.73145C148.041 8.73145 145.892 9.69624 144.746 11.1769C144.131 11.972 143.806 12.9158 143.689 13.9389C143.655 14.2407 143.639 14.5494 143.639 14.8633C143.639 15.5314 143.7 16.1775 143.852 16.7989C144.241 18.3842 145.225 19.8084 147.306 21.0259L151.743 23.645C152.883 24.3229 153.191 24.6618 153.191 25.2781C153.191 26.2641 152.759 26.8496 151.25 26.8496C150.868 26.8496 150.396 26.8311 149.88 26.8012C149.875 26.8009 149.871 26.8007 149.866 26.8004C149.713 26.7915 149.555 26.7815 149.395 26.7708C149.163 26.7552 148.925 26.7379 148.685 26.7194C147.579 26.6342 146.431 26.5244 145.606 26.4454L145.606 26.4454C145.518 26.437 145.434 26.429 145.355 26.4214ZM163.156 31.3175C163.156 31.6564 163.465 31.9337 163.804 31.9337H168.795C169.134 31.9337 169.412 31.6564 169.412 31.3175V23.7682C170.367 23.7991 170.706 23.7991 171.168 23.7991L175.081 31.3175L175.099 31.3535L175.116 31.3888C175.256 31.6714 175.385 31.9337 175.697 31.9337H181.367C181.675 31.9337 181.891 31.7488 181.891 31.4715C181.891 31.3791 181.86 31.2558 181.798 31.1326L177.33 22.7514C177.649 22.615 177.964 22.4489 178.268 22.2518C179.819 21.2467 181.09 19.4378 181.09 16.6812V16.1882C181.09 10.5494 177.176 8.73145 171.445 8.73145C169.257 8.73145 166.176 8.94714 164.944 9.13202C164.206 9.2549 163.729 9.41779 163.455 9.80869C163.397 9.89088 163.349 9.98314 163.308 10.0872C163.204 10.3571 163.156 10.7064 163.156 11.1657V31.3175ZM172.73 14.0621C172.444 14.0211 172.129 14.0005 171.784 14.0005C171.568 14.0005 170.305 14.0005 169.412 14.0621V18.9614C169.566 18.9922 171.476 18.9922 171.661 18.9922C171.926 18.9922 172.171 18.9818 172.399 18.9614C172.883 18.9179 173.285 18.8288 173.613 18.6969C174.513 18.3359 174.865 17.6544 174.865 16.712V16.1882C174.865 15.2634 174.451 14.6275 173.613 14.2888C173.358 14.1856 173.064 14.11 172.73 14.0621ZM55.1108 18.8998V22.0735C55.1108 25.3705 54.1556 26.6955 51.9987 26.6955C49.8418 26.6955 48.8866 25.3705 48.8866 22.0735V18.8998C48.8866 15.6028 49.8418 14.247 51.9987 14.247C54.1556 14.247 55.1108 15.6028 55.1108 18.8998Z" fill="#CC302E"/>
<path d="M212.381 31.225C212.381 31.5948 212.165 31.7796 211.765 31.8413C210.655 32.057 208.56 32.211 206.927 32.211C202.983 32.211 199.008 31.2866 199.008 25.3089V9.65584C199.008 9.31689 199.316 9.03958 199.655 9.03958H204.678C205.017 9.03958 205.294 9.31689 205.294 9.65584V25.3089C205.294 26.5106 205.664 26.8495 206.773 26.8495H211.765C212.104 26.8495 212.381 27.1269 212.381 27.4658V31.225Z" fill="white"/>
<path d="M262.798 25.0932C262.798 31.0401 257.683 32.211 252.753 32.211C251.182 32.211 248.285 32.0878 246.837 31.8413C245.389 31.5948 244.896 31.1634 244.896 29.4995V11.4122C244.896 9.74828 245.389 9.31689 246.806 9.1012C248.1 8.88551 251.12 8.73145 252.661 8.73145C258.731 8.73145 262.675 10.1488 262.675 15.3254V15.8493C262.675 17.7905 261.689 19.4544 260.302 20.2247C261.689 21.0259 262.798 22.7206 262.798 24.6926V25.0932ZM256.636 16.2807V15.7876C256.636 14.4011 256.019 13.8156 253.832 13.8156C253.246 13.8156 251.274 13.8464 251.058 13.8464V18.2219H254.047C256.081 18.2219 256.636 17.3591 256.636 16.2807ZM256.759 24.9083V24.631C256.759 23.3985 256.081 22.4125 254.047 22.4125H251.058V27.1269H253.585C255.989 27.1269 256.759 26.2333 256.759 24.9083Z" fill="white"/>
<path fill-rule="evenodd" clip-rule="evenodd" d="M255.26 18.0839C256.313 17.799 256.636 17.1024 256.636 16.2805V15.7875C256.636 14.7692 256.303 14.183 255.26 13.9435C255.07 13.8997 254.855 13.8675 254.615 13.8463C254.379 13.8256 254.119 13.8155 253.832 13.8155C253.467 13.8155 252.566 13.8274 251.885 13.8364L251.885 13.8364C251.472 13.8419 251.14 13.8463 251.058 13.8463V18.2218H254.047C254.151 18.2218 254.252 18.2195 254.348 18.2151C254.7 18.1989 255.002 18.1538 255.26 18.0839ZM255.26 22.5646C254.996 22.4872 254.691 22.4374 254.341 22.4196C254.247 22.4148 254.149 22.4123 254.047 22.4123H251.058V27.1267H253.585C254.269 27.1267 254.821 27.0544 255.26 26.9203C256.365 26.5832 256.759 25.8561 256.759 24.9082V24.6309C256.759 23.6866 256.361 22.887 255.26 22.5646ZM211.765 31.8412C210.655 32.0568 208.56 32.2109 206.927 32.2109C202.983 32.2109 199.008 31.2865 199.008 25.3088V9.65572C199.008 9.31678 199.316 9.03946 199.655 9.03946H204.678C205.016 9.03946 205.294 9.31678 205.294 9.65572V25.3088C205.294 26.5105 205.664 26.8494 206.773 26.8494H211.765C212.104 26.8494 212.381 27.1268 212.381 27.4657V31.2249C212.381 31.5947 212.165 31.7795 211.765 31.8412ZM215.137 34.6752C214.208 35.5706 213.148 35.8672 212.502 35.9781C211.022 36.2571 208.675 36.4127 206.927 36.4127C204.809 36.4127 201.755 36.2067 199.179 34.5115C196.227 32.5691 194.806 29.3339 194.806 25.3088V9.65572C194.806 6.73664 197.264 4.83767 199.655 4.83767L204.678 4.83767C207.337 4.83767 209.496 6.99619 209.496 9.65572V22.6476H211.765C214.424 22.6476 216.583 24.8062 216.583 27.4657V31.2249C216.583 32.2843 216.238 33.615 215.137 34.6752ZM206.743 22.647C206.743 22.6469 206.749 22.647 206.76 22.6476C206.748 22.6474 206.743 22.6471 206.743 22.647ZM209.496 25.3373C209.497 25.3468 209.497 25.3519 209.497 25.352C209.496 25.3522 209.496 25.3474 209.496 25.3373ZM261.64 34.5688C258.788 36.128 255.395 36.4127 252.753 36.4127C251.132 36.4127 247.944 36.2918 246.132 35.9834C245.317 35.8446 243.509 35.5037 242.165 33.9736C240.797 32.4148 240.694 30.5387 240.694 29.4994V11.4121C240.694 10.3805 240.795 8.50145 242.159 6.94408C243.506 5.40774 245.312 5.07925 246.147 4.95126C247.792 4.68205 251.051 4.52954 252.661 4.52954C255.84 4.52954 259.287 4.86526 262.036 6.4429C263.503 7.2852 264.782 8.48658 265.661 10.1155C266.527 11.7194 266.877 13.4988 266.877 15.3253V15.8492C266.877 17.3719 266.521 18.8628 265.858 20.1832C266.578 21.5158 267 23.0555 267 24.6925V25.0931C267 27.1952 266.543 29.1465 265.544 30.8447C264.542 32.5462 263.142 33.7474 261.64 34.5688ZM262.701 23.6868C262.764 24.0113 262.798 24.3477 262.798 24.6925V25.0931C262.798 31.04 257.683 32.2109 252.753 32.2109C251.182 32.2109 248.285 32.0877 246.837 31.8412C245.389 31.5947 244.896 31.1633 244.896 29.4994V11.4121C244.896 9.74816 245.389 9.31678 246.806 9.10108C248.1 8.88539 251.12 8.73133 252.661 8.73133C258.731 8.73133 262.675 10.1487 262.675 15.3253V15.8492C262.675 16.1427 262.652 16.43 262.609 16.7087C262.368 18.2732 261.479 19.5708 260.302 20.2246C261.446 20.8857 262.402 22.1551 262.701 23.6868Z" fill="#CC302E"/>
<path d="M243.188 24.7122C240.908 21.0427 238.656 17.3899 236.706 14.2246C236.7 12.5298 236.698 10.7875 236.703 9.00875C237.656 7.77063 237.919 6.25798 237.768 4.96944C237.434 2.04219 235.09 0.00012207 232.053 0.00012207H232.034C231.311 0.00292326 230.588 0.00572445 229.865 0.00572445H228.409L226.507 0.00292326C226.35 0.00292326 226.19 0.00012207 226.031 0.00012207C225.714 0.00012207 225.297 0.00292326 224.851 0.0197304L224.717 0.0253328L224.582 0.0365376C221.532 0.322259 219.339 2.80972 219.481 5.8238C219.535 7.0003 219.941 8.08156 220.596 8.96113C220.605 9.95556 220.596 10.9696 220.585 12.0144C220.579 12.7035 220.574 13.4066 220.571 14.1181C219.546 16.0902 218.285 18.0454 216.963 20.0987C215.983 21.6197 214.972 23.1884 214.033 24.8103C212.322 27.3762 212.148 30.6704 213.591 33.4772C215.075 36.3596 217.963 38.1495 221.129 38.1495C221.257 38.1495 221.389 38.1467 221.518 38.1411C223.994 38.1355 226.47 38.1327 228.949 38.1327C231.204 38.1327 233.459 38.1355 235.717 38.1411C235.857 38.1467 235.997 38.1523 236.137 38.1523C239.317 38.1523 242.21 36.3568 243.692 33.4688C245.152 30.6283 244.953 27.2921 243.188 24.7122Z" fill="#CC302E"/>
<path d="M240.151 27.76C240.109 27.5807 240.059 27.4098 240 27.2502C239.967 27.1521 239.925 27.0457 239.874 26.9308C239.824 26.8188 239.77 26.7151 239.706 26.5975C239.639 26.4742 239.577 26.3706 239.513 26.2754C239.485 26.2333 239.46 26.1941 239.431 26.1549C237.165 22.5134 234.894 18.827 232.944 15.6532C232.927 15.6252 232.877 15.544 232.849 15.488C232.832 13.1994 232.832 10.8072 232.846 8.18526C233.616 7.8043 233.955 7.16843 233.852 6.29166C233.745 5.27202 232.947 4.60254 231.821 4.60254H231.809C231.132 4.60534 230.456 4.60814 229.781 4.60814C229.328 4.60814 228.874 4.60814 228.42 4.60534H227.059C226.916 4.60534 226.776 4.60534 226.636 4.60254H226.204C225.913 4.60254 225.568 4.60534 225.218 4.61935H225.162C224.101 4.72019 223.364 5.53534 223.411 6.55777C223.445 7.27207 223.846 7.88273 224.428 8.21327C224.473 9.64468 224.459 11.0985 224.445 12.5131C224.437 13.4039 224.428 14.3255 224.434 15.2387C223.333 17.4908 221.913 19.6954 220.537 21.8327C219.624 23.2473 218.68 24.7123 217.826 26.1941C217.764 26.281 217.708 26.3678 217.655 26.4546C216.806 27.8692 216.803 29.6732 217.647 31.1662C218.493 32.6593 219.98 33.55 221.63 33.55C221.72 33.55 221.809 33.5472 221.902 33.5416C224.243 33.536 226.582 33.5332 228.927 33.5332C231.062 33.5332 233.202 33.536 235.342 33.5416C235.431 33.5472 235.527 33.5528 235.633 33.5528C236.826 33.5528 237.961 33.0794 238.824 32.2251C238.933 32.1158 239.037 32.0038 239.132 31.8861C240.093 30.7349 240.476 29.1886 240.151 27.76ZM233.008 21.1436C232.877 21.1912 232.751 21.2304 232.622 21.2612C232.524 21.2892 232.431 21.3088 232.333 21.3256C232.143 21.3621 231.952 21.3817 231.762 21.3929C231.667 21.3985 231.574 21.4013 231.479 21.4013C230.653 21.4013 229.846 21.2052 229.039 20.9839H229.036C228.86 20.9363 228.689 20.8887 228.518 20.841C228.403 20.8074 228.288 20.7766 228.174 20.7458C227.42 20.5469 226.658 20.376 225.882 20.376C225.535 20.376 225.187 20.4097 224.832 20.4881C224.756 20.4993 224.686 20.5105 224.616 20.5273C225.605 18.9474 226.501 17.334 227.148 15.6308C227.162 14.4319 227.165 13.2386 227.165 12.0481C227.165 10.4766 227.159 8.91077 227.162 7.3337H230.095C230.165 10.0453 230.118 12.7512 230.112 15.4628C230.109 16.0342 230.26 16.5076 230.555 16.9838C231.381 18.376 232.252 19.7458 233.123 21.1184C233.09 21.124 233.05 21.1324 233.011 21.1436H233.008ZM225.694 24.3789C226.941 24.3789 227.952 25.3902 227.952 26.6367C227.952 27.8832 226.941 28.8945 225.694 28.8945C224.448 28.8945 223.434 27.8832 223.434 26.6367C223.434 25.3902 224.445 24.3789 225.694 24.3789Z" fill="white"/>
<path d="M227.952 26.6368C227.952 27.8833 226.941 28.8945 225.694 28.8945C224.448 28.8945 223.434 27.8833 223.434 26.6368C223.434 25.3903 224.445 24.379 225.694 24.379C226.944 24.379 227.952 25.3903 227.952 26.6368Z" fill="#CC302E"/>
<path d="M233.12 21.1183C233.087 21.1239 233.048 21.1323 233.008 21.1435C232.877 21.1911 232.751 21.2303 232.622 21.2611C232.524 21.2892 232.431 21.3088 232.333 21.3256C232.143 21.362 231.952 21.3816 231.762 21.3928C231.667 21.3984 231.574 21.4012 231.479 21.4012C230.653 21.4012 229.846 21.2051 229.039 20.9838H229.036C228.86 20.9362 228.689 20.8886 228.518 20.841C228.403 20.8073 228.288 20.7765 228.173 20.7457C227.42 20.5468 226.658 20.376 225.882 20.376C225.535 20.376 225.187 20.4096 224.832 20.488C224.756 20.4992 224.686 20.5104 224.616 20.5272C225.605 18.9474 226.501 17.3339 227.148 15.6307C227.162 14.4318 227.165 13.2385 227.165 12.048C227.165 10.4766 227.159 8.91069 227.162 7.33362H230.095C230.165 10.0452 230.118 12.7511 230.112 15.4627C230.109 16.0341 230.26 16.5075 230.554 16.9837C231.381 18.3759 232.252 19.7457 233.123 21.1183H233.12Z" fill="#CC302E"/>
</svg>
