<svg width="27" height="27" viewBox="0 0 27 27" fill="none" xmlns="http://www.w3.org/2000/svg">
<g clip-path="url(#clip0_319_187)">
<mask id="mask0_319_187" style="mask-type:luminance" maskUnits="userSpaceOnUse" x="0" y="0" width="27" height="27">
<path d="M27 0H0V27H27V0Z" fill="white"/>
</mask>
<g mask="url(#mask0_319_187)">
<path d="M6.39473 4.90633L8.17504 6.98364L9.64484 8.82216L9.49718 11.3483L6.55588 11.8934L4.48363 14.3437L5.44973 16.3493L6.38292 18.0216L8.58255 19.7251L7.14145 21.9121L5.20757 22.7567M13.0451 26.1562L14.0062 23.9978L13.1472 21.0025L14.3808 17.76L17.9381 17.0985L20.9452 18.3709L23.1415 21.1704M25.0407 11.8124C25.5803 14.2792 25.3145 16.854 24.2825 19.1585C23.2504 21.4631 21.5064 23.3759 19.3069 24.6161C17.1073 25.8561 14.5679 26.3582 12.0619 26.0484C9.55591 25.7386 7.21533 24.6333 5.38397 22.8948C3.5526 21.1564 2.32702 18.8765 1.88726 16.3899C1.44751 13.9034 1.81675 11.3414 2.94076 9.08027C4.06477 6.81918 5.88429 4.97811 8.13203 3.82757C10.3797 2.67702 12.9372 2.27765 15.4287 2.68811M21.0937 5.90617C21.0937 6.83815 20.3382 7.59367 19.4062 7.59367C18.4743 7.59367 17.7187 6.83815 17.7187 5.90617C17.7187 4.97419 18.4743 4.21867 19.4062 4.21867C20.3382 4.21867 21.0937 4.97419 21.0937 5.90617ZM24.4687 5.77455C24.4687 8.81794 19.4062 13.4999 19.4062 13.4999C19.4062 13.4999 14.3437 8.81794 14.3437 5.77455C14.3469 5.11678 14.481 4.46624 14.7382 3.86083C14.9954 3.25542 15.3705 2.70726 15.8418 2.24831C16.3129 1.78936 16.8708 1.42879 17.4828 1.18764C18.0947 0.946482 18.7486 0.829554 19.4062 0.843671C20.0638 0.829554 20.7177 0.946482 21.3297 1.18764C21.9416 1.42879 22.4995 1.78936 22.9707 2.24831C23.4418 2.70726 23.817 3.25542 24.0742 3.86083C24.3314 4.46624 24.4655 5.11678 24.4687 5.77455Z" stroke="white" stroke-opacity="0.4" stroke-width="2" stroke-linecap="round" stroke-linejoin="round"/>
</g>
</g>
<defs>
<clipPath id="clip0_319_187">
<rect width="27" height="27" fill="white"/>
</clipPath>
</defs>
</svg>
