<?xml version="1.0" standalone="no"?>
<!DOCTYPE svg PUBLIC "-//W3C//DTD SVG 20010904//EN"
 "http://www.w3.org/TR/2001/REC-SVG-20010904/DTD/svg10.dtd">
<svg version="1.0" xmlns="http://www.w3.org/2000/svg"
 width="200.000000pt" height="200.000000pt" viewBox="0 0 200.000000 200.000000"
 preserveAspectRatio="xMidYMid meet">
<metadata>
Created by potrace 1.14, written by Peter Selinger 2001-2017
</metadata>
<g transform="translate(0.000000,200.000000) scale(0.100000,-0.100000)"
fill="#000000" stroke="none">
<path d="M885 1994 c-11 -2 -45 -9 -75 -15 -184 -37 -397 -183 -509 -348 -92
-136 -134 -275 -135 -446 -1 -132 16 -208 75 -333 16 -35 29 -65 29 -68 0 -25
209 -334 288 -426 147 -172 280 -306 327 -331 55 -29 165 -33 220 -8 39 17
205 179 295 286 23 28 51 60 62 73 110 131 245 343 300 473 65 149 78 217 74
354 -5 136 -22 208 -71 312 -44 94 -83 151 -154 222 -167 170 -349 250 -581
256 -69 1 -134 1 -145 -1z"/>
</g>
</svg>
