<?xml version="1.0" standalone="no"?>
<!DOCTYPE svg PUBLIC "-//W3C//DTD SVG 20010904//EN"
 "http://www.w3.org/TR/2001/REC-SVG-20010904/DTD/svg10.dtd">
<svg version="1.0" xmlns="http://www.w3.org/2000/svg"
 width="144.000000pt" height="144.000000pt" viewBox="0 0 144.000000 144.000000"
 preserveAspectRatio="xMidYMid meet">
<metadata>
Created by potrace 1.14, written by Peter Selinger 2001-2017
</metadata>
<g transform="translate(0.000000,144.000000) scale(0.100000,-0.100000)"
fill="#000000" stroke="none">
<path d="M554 1405 c-182 -56 -316 -180 -390 -360 -26 -63 -28 -81 -28 -185 0
-63 3 -124 6 -135 37 -122 110 -257 213 -394 90 -118 247 -286 289 -308 40
-21 122 -21 162 0 76 39 310 313 400 466 46 79 98 204 110 262 44 225 -73 470
-283 594 -145 87 -322 109 -479 60z"/>
</g>
</svg>
