<?xml version="1.0" encoding="utf-8"?>
<!-- Generator: Adobe Illustrator 27.8.1, SVG Export Plug-In . SVG Version: 6.00 Build 0)  -->
<svg version="1.1" id="Calque_1" xmlns="http://www.w3.org/2000/svg" xmlns:xlink="http://www.w3.org/1999/xlink" x="0px" y="0px"
	 viewBox="0 0 208 40" style="enable-background:new 0 0 208 40;" xml:space="preserve">
<style type="text/css">
	.st0{fill-rule:evenodd;clip-rule:evenodd;fill:#CC302E;}
	.st1{fill-rule:evenodd;clip-rule:evenodd;fill:#FFFFFF;}
	.st2{fill:#FFFFFF;}
</style>
<path class="st0" d="M199,27.5l-3.4-4.4c0.1-0.1,0.1-0.1,0.2-0.2c1.5-1.9,2.2-4.2,2.2-6.9c0-1.5-0.2-2.9-0.7-4.2
	c-0.5-1.4-1.3-2.7-2.4-3.8c-1.1-1.1-2.4-2-3.9-2.6c-1.5-0.6-3.1-0.9-4.9-0.9h-8.5c-1.2,0-2.3,0.4-3.2,1.1c-1-0.5-2.1-0.8-3.2-1.1
	c-1.5-0.4-3-0.6-4.5-0.6c-1.7,0-3.3,0.3-4.8,0.8c-1.3,0.5-2.5,1.2-3.5,2.1c-0.3-0.2-0.6-0.4-0.9-0.6c-1.4-0.7-2.9-1.3-4.4-1.7
	c-1.5-0.4-3-0.6-4.5-0.6c-1.7,0-3.3,0.3-4.8,0.8c-1,0.4-1.9,0.9-2.7,1.4c-0.9-1-2.2-1.7-3.7-1.7l-10.5,0c-1.5,0-2.8,0.6-3.7,1.7
	c-0.9-1-2.2-1.7-3.7-1.7h-3.9c-1.5,0-2.8,0.6-3.7,1.7c-0.9-1-2.2-1.7-3.7-1.7h-5.5c-1.9,0-3.6,1.1-4.4,2.7C97.6,6.7,97,6.4,96.4,6
	c-2.4-1.4-5.2-2.1-8.3-2.1c-2.3,0-4.5,0.4-6.4,1.2c-2,0.8-3.8,1.9-5.2,3.4c-0.4,0.4-0.7,0.7-1,1.1C72.8,3.9,67.1,0,60.5,0
	c-5.3,0-10,2.5-13.1,6.4c-0.9-1.1-2.3-1.9-3.9-1.9h-12c-2.1,0-4,1.4-4.7,3.3c-0.7-0.7-1.6-1.3-2.4-1.8c-2.4-1.4-5.2-2.1-8.3-2.1
	c-2.3,0-4.5,0.4-6.4,1.2C7.8,5.9,6,7,4.5,8.4c-1.5,1.5-2.6,3.2-3.4,5.2C0.4,15.6,0,17.7,0,20c0,2.3,0.4,4.4,1.2,6.4
	c0.8,2,1.9,3.7,3.4,5.2C6,33,7.7,34.1,9.7,34.9c1.9,0.8,4.1,1.2,6.3,1.2c1.6,0,3.2-0.2,4.7-0.6c1.5-0.4,3-1.1,4.3-1.9
	c0.6-0.4,1.3-0.9,1.8-1.4c0.7,1.9,2.5,3.3,4.7,3.3h12c2.7,0,5-2.2,5-4.9v-2c1.9,2.9,4.6,6.3,8.4,10.1c1,1,2.2,1.5,3.5,1.5
	c1.3,0,2.5-0.5,3.5-1.5c4.5-4.5,7.5-8.4,9.4-11.6c0.8,1.7,1.8,3.3,3.1,4.6c1.4,1.5,3.2,2.6,5.2,3.4c1.9,0.8,4.1,1.2,6.3,1.2
	c1.6,0,3.2-0.2,4.7-0.6c1.5-0.4,3-1.1,4.3-1.9c1.2-0.8,2.3-1.7,3.2-2.7c0.3,0.4,0.7,0.9,1.1,1.2c2.5,2.5,6,3.7,10.5,3.7
	c3.8,0,7-0.9,9.3-2.7c0.9,1.5,2.5,2.5,4.3,2.5h12c1.1,0,2.2-0.4,3-1c2.3,1.1,4.8,1.6,7.4,1.6c1.8,0,3.5-0.3,5.1-0.8
	c1.4-0.5,2.6-1.1,3.6-1.9c2.9,1.8,6,2.7,9.4,2.7c1.8,0,3.5-0.3,5.1-0.8c1.1-0.4,2-0.8,2.9-1.4c0.9,1,2.2,1.6,3.7,1.6h5.5
	c1,0,1.9-0.3,2.6-0.7c0.8,0.5,1.7,0.7,2.6,0.7h6.8c1.9,0,3.6-1.1,4.4-2.8C200.3,31,200.1,29,199,27.5z"/>
<path class="st1" d="M60.5,5c6.4,0,11.6,5.2,11.6,11.6c0,0,0.4,6.5-11.6,18.5c-12-12-11.6-18.5-11.6-18.5C48.8,10.2,54,5,60.5,5z
	 M57.4,13.5c0,1.7,1.4,3,3.1,3c1.7,0,3.1-1.4,3.1-3c0-1.7-1.4-3.1-3.1-3.1C58.8,10.5,57.4,11.8,57.4,13.5z"/>
<path class="st2" d="M150.8,17.7c-0.4-0.1-0.9-0.3-1.4-0.4c-0.5-0.1-0.9-0.3-1.2-0.5c-0.4-0.2-0.7-0.4-0.9-0.6
	c-0.2-0.2-0.3-0.5-0.3-0.9c0-0.5,0.2-1,0.7-1.3c0.4-0.3,1-0.5,1.7-0.5c0.6,0,1.1,0.1,1.7,0.3c0.6,0.2,1.2,0.6,1.8,1.1l2.2-4.3
	c-1-0.6-2.1-1-3.3-1.3c-1.1-0.3-2.2-0.4-3.3-0.4c-1.1,0-2.1,0.2-3,0.5c-0.9,0.3-1.7,0.8-2.3,1.4c-0.6,0.6-1.1,1.3-1.5,2.2
	c-0.3,0.8-0.5,1.8-0.5,2.8s0.2,1.9,0.5,2.6c0.3,0.7,0.8,1.2,1.3,1.7c0.5,0.4,1.1,0.8,1.8,1.1c0.7,0.3,1.4,0.5,2.1,0.7
	c0.6,0.2,1.1,0.4,1.5,0.6c0.4,0.2,0.8,0.3,1,0.5c0.3,0.2,0.4,0.4,0.6,0.6c0.1,0.2,0.2,0.5,0.2,0.8c0,0.5-0.2,1-0.7,1.4
	c-0.4,0.4-1.1,0.6-2,0.6c-0.8,0-1.6-0.2-2.4-0.5c-0.8-0.4-1.6-0.9-2.4-1.6l-2.4,4.4c2.3,1.6,4.8,2.4,7.4,2.4c1.3,0,2.4-0.2,3.5-0.5
	c1-0.3,1.9-0.8,2.6-1.5c0.7-0.6,1.2-1.4,1.6-2.2s0.5-1.9,0.5-2.9c0-1.6-0.4-2.9-1.2-3.9C153.9,19.1,152.6,18.3,150.8,17.7z"/>
<path class="st2" d="M16.2,23h4.5c-0.1,0.6-0.3,1.1-0.5,1.6c-0.3,0.4-0.6,0.8-1,1c-0.4,0.3-0.9,0.5-1.4,0.6c-0.5,0.1-1,0.2-1.6,0.2
	c-0.9,0-1.7-0.2-2.4-0.5c-0.7-0.3-1.3-0.7-1.7-1.3c-0.5-0.6-0.8-1.2-1.1-2c-0.2-0.8-0.3-1.6-0.3-2.5c0-1,0.1-1.9,0.4-2.7
	c0.3-0.8,0.6-1.5,1.1-2.1c0.5-0.6,1.1-1,1.7-1.3c0.7-0.3,1.4-0.5,2.2-0.5c1,0,1.9,0.3,2.6,0.8c0.8,0.5,1.4,1.3,1.9,2.5l5.2-2.2
	c-1-2-2.3-3.5-3.9-4.4c-1.7-0.9-3.6-1.4-5.8-1.4c-1.7,0-3.2,0.3-4.6,0.8C10.2,10.2,9,11,8,12c-1,1-1.7,2.1-2.3,3.5
	C5.2,16.8,5,18.3,5,20c0,1.7,0.3,3.2,0.8,4.5C6.3,25.9,7.1,27.1,8,28c1,1,2.1,1.7,3.5,2.3c1.4,0.5,2.9,0.8,4.5,0.8
	c1.2,0,2.3-0.1,3.4-0.4c1.1-0.3,2.1-0.7,3-1.3c0.9-0.6,1.7-1.3,2.4-2.1c0.7-0.8,1.2-1.8,1.6-2.9c0.3-0.8,0.5-1.6,0.6-2.5
	c0.1-0.9,0.1-1.9,0.1-3H16.2V23z"/>
<path class="st2" d="M31.5,30.5h12v-4.6H37v-3.6h6.2v-4.6H37v-3.5h6.5V9.5h-12V30.5z"/>
<path class="st2" d="M92.7,23h-4.5v-4.2H99c0,1.1,0,2.1-0.1,3c-0.1,0.9-0.3,1.8-0.6,2.5c-0.4,1.1-0.9,2.1-1.6,2.9
	c-0.7,0.8-1.5,1.6-2.4,2.1c-0.9,0.6-1.9,1-3,1.3c-1.1,0.3-2.2,0.4-3.4,0.4c-1.6,0-3.1-0.3-4.5-0.8C82.1,29.8,81,29,80,28
	c-1-1-1.7-2.2-2.3-3.5c-0.5-1.4-0.8-2.9-0.8-4.5c0-1.6,0.3-3.1,0.8-4.5c0.5-1.4,1.3-2.5,2.3-3.5c1-1,2.2-1.7,3.5-2.3
	c1.4-0.5,2.9-0.8,4.6-0.8c2.2,0,4.1,0.5,5.8,1.4c1.7,0.9,3,2.4,3.9,4.4l-5.2,2.2c-0.5-1.2-1.1-2-1.9-2.5c-0.8-0.5-1.7-0.8-2.6-0.8
	c-0.8,0-1.6,0.2-2.2,0.5c-0.7,0.3-1.2,0.7-1.7,1.3c-0.5,0.6-0.9,1.3-1.1,2.1c-0.3,0.8-0.4,1.7-0.4,2.7c0,0.9,0.1,1.7,0.4,2.5
	c0.2,0.8,0.6,1.4,1.1,2c0.5,0.6,1,1,1.7,1.3c0.7,0.3,1.5,0.5,2.4,0.5c0.5,0,1.1-0.1,1.6-0.2c0.5-0.1,1-0.3,1.4-0.6
	c0.4-0.3,0.7-0.6,1-1C92.4,24.1,92.6,23.6,92.7,23z"/>
<path class="st2" d="M115.5,20.6c0,0.6,0,1.2-0.1,1.9c0,0.6-0.2,1.2-0.4,1.7c-0.2,0.5-0.6,0.9-1.1,1.3c-0.5,0.3-1.2,0.5-2.1,0.5
	c-0.9,0-1.6-0.2-2.1-0.5c-0.5-0.3-0.9-0.7-1.1-1.3c-0.2-0.5-0.4-1.1-0.4-1.7c0-0.6-0.1-1.3-0.1-1.9V9.2h-5.5v12.2
	c0,3.3,0.8,5.7,2.3,7.2c1.5,1.5,3.8,2.3,6.9,2.3c3.1,0,5.4-0.8,6.9-2.3c1.5-1.5,2.3-3.9,2.3-7.2V9.2h-5.5V20.6z"/>
<path class="st2" d="M137.4,30.5h-12V9.5h12v4.6h-6.5v3.5h6.2v4.6h-6.2v3.6h6.5V30.5z"/>
<path class="st2" d="M167.5,17.3c0.5,0.1,0.9,0.3,1.4,0.4c1.8,0.6,3.1,1.4,3.9,2.4c0.8,1,1.2,2.3,1.2,3.9c0,1.1-0.2,2.1-0.5,2.9
	c-0.4,0.9-0.9,1.6-1.6,2.2c-0.7,0.6-1.6,1.1-2.6,1.5c-1,0.3-2.2,0.5-3.5,0.5c-2.7,0-5.1-0.8-7.4-2.4l2.4-4.4
	c0.8,0.7,1.6,1.3,2.4,1.6c0.8,0.4,1.6,0.5,2.4,0.5c0.9,0,1.6-0.2,2-0.6c0.4-0.4,0.7-0.9,0.7-1.4c0-0.3-0.1-0.6-0.2-0.8
	c-0.1-0.2-0.3-0.4-0.6-0.6c-0.3-0.2-0.6-0.4-1-0.5c-0.4-0.2-0.9-0.4-1.5-0.6c-0.7-0.2-1.4-0.5-2.1-0.7c-0.7-0.3-1.3-0.6-1.8-1.1
	c-0.5-0.4-1-1-1.3-1.7c-0.3-0.7-0.5-1.5-0.5-2.6s0.2-2,0.5-2.8c0.3-0.8,0.8-1.6,1.5-2.2c0.6-0.6,1.4-1.1,2.3-1.4
	c0.9-0.3,1.9-0.5,3-0.5c1,0,2.1,0.1,3.3,0.4s2.2,0.7,3.3,1.3l-2.2,4.3c-0.6-0.5-1.2-0.8-1.8-1.1c-0.6-0.2-1.2-0.3-1.7-0.3
	c-0.7,0-1.3,0.2-1.7,0.5c-0.4,0.3-0.7,0.8-0.7,1.3c0,0.4,0.1,0.7,0.3,0.9c0.2,0.2,0.5,0.5,0.9,0.6C166.6,17,167,17.1,167.5,17.3z"/>
<path class="st1" d="M188.4,21.9c1.5-0.4,2.7-1,3.4-2c0.8-1,1.2-2.3,1.2-3.9c0-0.9-0.1-1.7-0.4-2.5c-0.3-0.8-0.7-1.5-1.3-2.1
	c-0.6-0.6-1.3-1.1-2.2-1.4c-0.9-0.3-1.9-0.5-3.1-0.5h-8.5v21.1h5.5v-8.1l5.2,8.1h6.8L188.4,21.9z M186.5,18.2
	c-0.6,0.4-1.4,0.7-2.5,0.7h-1v-5.2h1c1.1,0,1.9,0.2,2.5,0.7c0.6,0.4,0.9,1.1,0.9,1.9C187.4,17.1,187.1,17.8,186.5,18.2z"/>
</svg>
